<svg version="1.1" id="Layer_1" xmlns="http://www.w3.org/2000/svg" xmlns:xlink="http://www.w3.org/1999/xlink" x="0px" y="0px"
	 width="100%" viewBox="0 0 114 86" enable-background="new 0 0 114 86" xml:space="preserve">

<path fill="#5C2703" opacity="1.000000" stroke="none" 
	d="
M70.840408,85.188599 
	C48.006538,87.822411 34.749268,86.280914 21.426092,66.695312 
	C18.185616,61.931679 17.066378,55.368362 16.199297,49.452633 
	C15.416352,44.110920 15.852085,38.463516 16.553936,33.055199 
	C18.614285,17.178579 39.044510,0.449660 55.775246,1.748899 
	C65.180763,2.479291 74.331665,2.483309 82.202347,8.507903 
	C93.128548,16.871340 100.628647,27.001549 100.047058,41.639076 
	C99.757980,48.914677 100.507339,56.196560 97.013535,63.096935 
	C91.450752,74.083611 82.686279,81.091377 70.840408,85.188599 
M72.998184,10.297479 
	C55.477188,3.423353 37.260239,8.643762 27.475311,23.342913 
	C17.799446,37.878235 19.178566,57.051304 31.265253,69.352333 
	C42.161976,80.442299 55.372379,83.764488 70.196213,78.812096 
	C84.439384,74.053665 94.338295,61.054806 94.834129,46.159794 
	C95.372475,29.987886 88.191849,18.038502 72.998184,10.297479 
z"/>
<path fill="#B93F28" opacity="1.000000" stroke="none" 
	d="
M73.337524,10.471752 
	C88.191849,18.038502 95.372475,29.987886 94.834129,46.159794 
	C94.338295,61.054806 84.439384,74.053665 70.196213,78.812096 
	C55.372379,83.764488 42.161976,80.442299 31.265253,69.352333 
	C19.178566,57.051304 17.799446,37.878235 27.475311,23.342913 
	C37.260239,8.643762 55.477188,3.423353 73.337524,10.471752 
M65.347237,46.996407 
	C65.901260,43.092873 66.455284,39.189335 67.069588,34.861061 
	C73.553452,38.469967 72.922531,42.999413 70.508324,47.993710 
	C76.017288,46.574196 78.119141,44.384956 76.715904,40.672279 
	C74.416306,34.588051 71.212936,28.845411 67.954819,22.049431 
	C62.681980,27.950560 61.143234,34.021210 59.645840,40.096970 
	C57.931587,47.052628 57.956806,47.054985 51.152885,45.964081 
	C50.333691,45.832737 49.506069,45.736835 48.678551,45.677475 
	C44.549824,45.381336 41.476112,46.991695 40.101746,50.975998 
	C38.782551,54.800365 39.556690,58.332024 42.946449,60.752151 
	C47.598270,64.073326 52.836033,65.862717 58.436062,63.796276 
	C63.794243,61.819077 64.381035,56.680168 65.093346,51.866676 
	C65.286812,50.559269 65.231468,49.215046 65.347237,46.996407 
z"/>
<path fill="#E2A14E" opacity="1.000000" stroke="none" 
	d="
M65.318779,47.442062 
	C65.231468,49.215046 65.286812,50.559269 65.093346,51.866676 
	C64.381035,56.680168 63.794243,61.819077 58.436062,63.796276 
	C52.836033,65.862717 47.598270,64.073326 42.946449,60.752151 
	C39.556690,58.332024 38.782551,54.800365 40.101746,50.975998 
	C41.476112,46.991695 44.549824,45.381336 48.678551,45.677475 
	C49.506069,45.736835 50.333691,45.832737 51.152885,45.964081 
	C57.956806,47.054985 57.931587,47.052628 59.645840,40.096970 
	C61.143234,34.021210 62.681980,27.950560 67.954819,22.049431 
	C71.212936,28.845411 74.416306,34.588051 76.715904,40.672279 
	C78.119141,44.384956 76.017288,46.574196 70.508324,47.993710 
	C72.922531,42.999413 73.553452,38.469967 67.069588,34.861061 
	C66.455284,39.189335 65.901260,43.092873 65.318779,47.442062 
z"/>

</svg>