<svg version="1.1" id="Layer_1" xmlns="http://www.w3.org/2000/svg" xmlns:xlink="http://www.w3.org/1999/xlink" x="0px" y="0px"
	 width="100%" viewBox="0 0 114 86" enable-background="new 0 0 114 86" xml:space="preserve">

<path fill="#5C2703" opacity="1.000000" stroke="none" 
	d="
M18.305019,61.468987 
	C14.507671,45.310307 13.083975,29.674007 24.916460,16.419415 
	C32.696537,7.704273 41.929829,1.635627 54.604809,1.829042 
	C64.582253,1.981294 74.161179,2.185171 82.465454,8.682323 
	C93.148285,17.040419 100.487572,27.009562 100.074585,41.428265 
	C99.846176,49.402576 100.522766,57.418598 96.138199,64.645203 
	C88.274437,77.606163 77.754761,86.235672 61.686378,86.013977 
	C52.933853,85.893227 44.294136,86.573822 36.225925,81.330666 
	C28.456558,76.281723 22.422956,70.115112 18.305019,61.468987 
M27.157232,64.230156 
	C38.783783,80.601990 58.679905,85.628349 75.604637,76.469429 
	C92.004326,67.594627 99.220726,47.848194 92.368607,30.597748 
	C84.349648,10.409761 61.386528,1.438192 41.909412,10.883618 
	C22.173050,20.454767 15.480529,43.777737 27.157232,64.230156 
z"/>
<path fill="#E2A14E" opacity="1.000000" stroke="none" 
	d="
M26.969093,63.917698 
	C15.480529,43.777737 22.173050,20.454767 41.909412,10.883618 
	C61.386528,1.438192 84.349648,10.409761 92.368607,30.597748 
	C99.220726,47.848194 92.004326,67.594627 75.604637,76.469429 
	C58.679905,85.628349 38.783783,80.601990 26.969093,63.917698 
M47.430916,63.237953 
	C51.316299,63.353233 55.453949,64.364777 59.024048,63.359909 
	C63.622482,62.065594 64.066185,58.373302 60.553066,55.106468 
	C57.525711,52.291344 54.263538,49.688107 50.887615,47.298565 
	C46.499836,44.192802 41.520859,46.135044 39.976582,51.312023 
	C38.497978,56.268837 40.436317,59.620777 47.430916,63.237953 
M60.875534,35.361553 
	C59.266670,39.351826 60.195118,42.062008 64.929306,43.157722 
	C65.802658,40.495411 66.640999,37.939827 67.578148,35.083027 
	C73.296387,38.498604 73.113487,42.883923 70.452087,47.883480 
	C76.079399,46.738201 78.284882,44.315712 76.744705,40.353134 
	C74.432854,34.405190 71.244865,28.797783 68.429436,23.045572 
	C67.783188,22.974712 67.136940,22.903852 66.490700,22.832993 
	C64.690193,26.756504 62.889687,30.680016 60.875534,35.361553 
M69.025116,58.499275 
	C69.512016,58.950844 69.925919,59.617115 70.499992,59.812271 
	C72.004601,60.323761 73.579086,60.629719 75.125717,61.017593 
	C74.465096,59.643917 74.138222,57.901089 73.091370,56.954613 
	C64.230965,48.943844 55.292923,41.015518 46.213638,33.254955 
	C45.169861,32.362782 43.118435,32.649483 41.534206,32.389595 
	C42.306953,33.692223 42.818924,35.284966 43.893967,36.251293 
	C52.038074,43.571861 60.292538,50.769653 69.025116,58.499275 
z"/>
<!-- lower half -->
<path fill="#4a2e14" opacity="1.000000" stroke="none" 
	d="
M47.072506,63.100536 
	C40.436317,59.620777 38.497978,56.268837 39.976582,51.312023 
	C41.520859,46.135044 46.499836,44.192802 50.887615,47.298565 
	C54.263538,49.688107 57.525711,52.291344 60.553066,55.106468 
	C64.066185,58.373302 63.622482,62.065594 59.024048,63.359909 
	C55.453949,64.364777 51.316299,63.353233 47.072506,63.100536 
z"/>
<!-- upper half  -->
<path fill="#4a2e14" opacity="1.000000" stroke="none" 
	d="
M60.982361,34.982540 
	C62.889687,30.680016 64.690193,26.756504 66.490700,22.832993 
	C67.136940,22.903852 67.783188,22.974712 68.429436,23.045572 
	C71.244865,28.797783 74.432854,34.405190 76.744705,40.353134 
	C78.284882,44.315712 76.079399,46.738201 70.452087,47.883480 
	C73.113487,42.883923 73.296387,38.498604 67.578148,35.083027 
	C66.640999,37.939827 65.802658,40.495411 64.929306,43.157722 
	C60.195118,42.062008 59.266670,39.351826 60.982361,34.982540 
z"/>
<!-- split  -->
<path fill="#4a2e14" opacity="1.000000" stroke="none" 
	d="
M68.768845,58.252510 
	C60.292538,50.769653 52.038074,43.571861 43.893967,36.251293 
	C42.818924,35.284966 42.306953,33.692223 41.534206,32.389595 
	C43.118435,32.649483 45.169861,32.362782 46.213638,33.254955 
	C55.292923,41.015518 64.230965,48.943844 73.091370,56.954613 
	C74.138222,57.901089 74.465096,59.643917 75.125717,61.017593 
	C73.579086,60.629719 72.004601,60.323761 70.499992,59.812271 
	C69.925919,59.617115 69.512016,58.950844 68.768845,58.252510 
z"/>
</svg>